<svg width="40" height="40" viewBox="0 0 40 40" fill="none" xmlns="http://www.w3.org/2000/svg">
<path d="M31.6466 3.35352L36.6466 8.35352L32.8349 12.1668L27.8349 7.16685L31.6466 3.35352ZM13.3333 26.6668H18.3333L30.4783 14.5218L25.4783 9.52185L13.3333 21.6668V26.6668Z" fill="#3F78E0"/>
<path d="M31.6667 31.6667H13.5967C13.5533 31.6667 13.5083 31.6833 13.465 31.6833C13.41 31.6833 13.355 31.6683 13.2983 31.6667H8.33333V8.33333H19.745L23.0783 5H8.33333C6.495 5 5 6.49333 5 8.33333V31.6667C5 33.5067 6.495 35 8.33333 35H31.6667C32.5507 35 33.3986 34.6488 34.0237 34.0237C34.6488 33.3986 35 32.5507 35 31.6667V17.22L31.6667 20.5533V31.6667Z" fill="#3F78E0"/>
</svg>
