<svg width="30" height="30" viewBox="0 0 30 30" fill="none" xmlns="http://www.w3.org/2000/svg">
<path d="M27.4793 13.016L10.5949 2.68825C10.2408 2.47239 9.83581 2.35434 9.4212 2.34616C9.00658 2.33797 8.59721 2.43995 8.23488 2.64166C7.87255 2.84338 7.57023 3.13763 7.35877 3.49436C7.14732 3.8511 7.0343 4.25755 7.03125 4.67224V25.3277C7.0343 25.7424 7.14732 26.1488 7.35877 26.5056C7.57023 26.8623 7.87255 27.1566 8.23488 27.3583C8.59721 27.56 9.00658 27.662 9.4212 27.6538C9.83581 27.6456 10.2408 27.5276 10.5949 27.3117L27.4793 16.984C27.8198 16.7767 28.1011 16.4853 28.2964 16.1379C28.4917 15.7904 28.5943 15.3985 28.5943 15C28.5943 14.6014 28.4917 14.2095 28.2964 13.8621C28.1011 13.5146 27.8198 13.2232 27.4793 13.016ZM9.84375 24.4746V5.52536L25.3312 15L9.84375 24.4746Z" fill="white"/>
</svg>
